<?xml version="1.0" standalone="no"?><!DOCTYPE svg PUBLIC "-//W3C//DTD SVG 1.1//EN" "http://www.w3.org/Graphics/SVG/1.1/DTD/svg11.dtd"><svg xmlns:xlink="http://www.w3.org/1999/xlink" xmlns="http://www.w3.org/2000/svg" version="1.1" width="200" height="200" viewBox="0 0 200 200"><defs><style type="text/css"><![CDATA[
@font-face {
  font-family: "ifont";
  src: url("//at.alicdn.com/t/font_1442373896_4754455.eot?#iefix") format("embedded-opentype"), url("//at.alicdn.com/t/font_1442373896_4754455.woff") format("woff"), url("//at.alicdn.com/t/font_1442373896_4754455.ttf") format("truetype"), url("//at.alicdn.com/t/font_1442373896_4754455.svg#ifont") format("svg");
}

]]></style></defs><g class="transform-group"><g transform="scale(0.1953125, 0.1953125)"><path d="M725.664 600.704c-2.08 0-4.256-0.192-6.368-0.64-17.312-3.52-28.544-20.416-25.024-37.728 3.776-18.624 5.696-37.728 5.696-56.768 0-60.352-18.752-118.336-54.24-167.712-10.304-14.336-7.04-34.336 7.328-44.672 14.336-10.336 34.304-7.072 44.672 7.328 43.328 60.32 66.24 131.232 66.24 205.056 0 23.328-2.336 46.688-6.944 69.472C753.92 590.24 740.576 600.704 725.664 600.704zM886.304 743.264c-4.672 0-9.376-0.992-13.856-3.168-15.904-7.648-22.624-26.784-14.976-42.72 27.008-56.16 40.672-116.384 40.672-178.976 0-100.544-36.736-197.824-103.488-273.888-11.648-13.312-10.304-33.504 2.976-45.184 13.216-11.648 33.472-10.304 45.152 2.944 76.96 87.776 119.36 200.032 119.36 316.096 0 72.288-15.808 141.856-47.008 206.72C909.696 736.576 898.24 743.264 886.304 743.264zM864.032 896.032c-8.192 0-16.384-3.136-22.624-9.376L138.24 183.488C125.76 171.008 125.76 150.752 138.24 138.24s32.736-12.512 45.248 0l703.168 703.168c12.512 12.512 12.512 32.736 0 45.248C880.416 892.896 872.224 896.032 864.032 896.032zM524.896 96.864c-21.6 0-45.696 12.416-67.872 35.072l-93.28 96.064L576 440.256 576 152.544C576 119.744 555.008 96.864 524.896 96.864zM96 413.984l0 196.064C96 662.72 138.144 704 192 704l82.048 0 183.168 189.952c21.568 21.984 45.28 34.08 66.816 34.08 30.592 0 51.968-23.264 51.968-56.576l0-159.712L184.928 320.672C134.592 324.16 96 363.648 96 413.984z" fill="#272636"></path></g></g></svg>