<?xml version="1.0" standalone="no"?><!DOCTYPE svg PUBLIC "-//W3C//DTD SVG 1.1//EN" "http://www.w3.org/Graphics/SVG/1.1/DTD/svg11.dtd"><svg xmlns:xlink="http://www.w3.org/1999/xlink" xmlns="http://www.w3.org/2000/svg" version="1.1" width="211.71875" height="200" viewBox="0 0 211.71875 200"><defs><style type="text/css"><![CDATA[
@font-face {
  font-family: "ifont";
  src: url("//at.alicdn.com/t/font_1442373896_4754455.eot?#iefix") format("embedded-opentype"), url("//at.alicdn.com/t/font_1442373896_4754455.woff") format("woff"), url("//at.alicdn.com/t/font_1442373896_4754455.ttf") format("truetype"), url("//at.alicdn.com/t/font_1442373896_4754455.svg#ifont") format("svg");
}

]]></style></defs><g class="transform-group"><g transform="scale(0.1953125, 0.1953125)"><path d="M1047.259599 284.479113c11.256831-32.745778-7.163494-66.514941-36.840549-75.724694-32.747211-12.279705-64.471037 6.139801-75.727868 37.862296-149.408966 445.138206-865.753355 440.021688-873.940132 440.021688 0 0 0 0-1.023386 0-32.747211 0-59.354212 26.605976-59.354212 59.351754-1.023386 32.745778 24.560332 60.375037 59.354212 60.375037 0 0 3.070054 0 7.163494 0 38.887217 0 216.950057-2.046566 414.456403-57.305188C778.118825 666.17233 974.601785 506.536574 1047.259599 284.479113L1047.259599 284.479113zM459.857182 310.061806c45.027326 0 77.774537-33.769061 77.774537-76.747977l0-21.489429c0-42.978814-32.747211-77.77126-77.774537-77.77126-39.910603 0-74.704483 34.792446-74.704483 77.77126l0 21.489429C385.152699 276.292745 419.946579 310.061806 459.857182 310.061806L459.857182 310.061806zM869.196862 679.475318c-40.933988 0-75.727868 34.792446-75.727868 76.747977l0 23.536041c0 41.955531 34.79388 76.747977 75.727868 76.747977 41.957272 0 77.774537-34.792446 77.774537-76.747977l0-23.536041C946.971399 714.267765 911.154134 679.475318 869.196862 679.475318L869.196862 679.475318zM1023.722551 533.142551c-32.747211 0-60.377597 29.675928-60.377597 61.39832l0 10.233062c0 33.769061 27.630386 60.375037 60.377597 60.375037 33.770494 0 59.354212-26.605976 59.354212-60.375037l0-10.233062C1083.076865 562.818479 1057.493148 533.142551 1023.722551 533.142551L1023.722551 533.142551zM651.223522 784.875838c-24.560332 0-49.120766 22.512741-49.120766 49.118718l0 12.279674c0 27.62926 24.560332 49.118718 49.120766 49.118718 27.630386 0 50.144151-21.489458 50.144151-49.118718l0-12.279674C701.367571 807.38858 678.853908 784.875838 651.223522 784.875838L651.223522 784.875838zM608.242864 88.004344c21.49038 0 37.863934-16.37294 37.863934-37.862296L646.106799 38.885681c0-22.512741-16.373554-38.885681-37.863934-38.885681-20.466994 0-37.863934 16.37294-37.863934 38.885681l0 11.256368C570.37893 71.631507 587.77587 88.004344 608.242864 88.004344L608.242864 88.004344zM289.981222 281.409263c20.466994 0 38.887217-16.37294 38.887217-36.839013l0-12.279674c0-20.466073-18.420326-38.885681-38.887217-38.885681-21.49038 0-38.887217 18.419506-38.887217 38.885681l0 12.279674C251.094004 265.036323 268.490944 281.409263 289.981222 281.409263L289.981222 281.409263zM271.560999 481.977267c32.747211 0 58.330928-27.62926 58.330928-60.375037l0-13.30298c0-32.745778-25.583717-60.375037-58.330928-60.375037s-59.354212 27.62926-59.354212 60.375037l0 13.30298C212.206787 454.348007 238.813787 481.977267 271.560999 481.977267L271.560999 481.977267zM613.359587 343.830867l0 14.326286c0 18.419506 17.39694 37.862296 37.863934 37.862296 22.513663 0 38.887217-19.442789 38.887217-37.862296l0-14.326286c0-19.442789-16.373554-37.862296-38.887217-37.862296C630.756527 305.968571 613.359587 324.388077 613.359587 343.830867L613.359587 343.830867zM432.226796 533.142551c31.723826 0 59.354212-24.559308 59.354212-58.328471l0-13.30298c0-30.699211-27.630386-59.351754-59.354212-59.351754-33.770494 0-61.400983 28.652543-61.400983 59.351754l0 13.30298C370.825813 508.583243 398.456301 533.142551 432.226796 533.142551L432.226796 533.142551zM767.885276 274.246076c41.957272 0 75.727868-33.769061 75.727868-77.77126l0-22.512735c0-41.955531-33.770494-75.724694-75.727868-75.724694-44.004043 0-76.751152 33.769061-76.751152 75.724694l0 22.512735C691.134125 240.477016 723.881336 274.246076 767.885276 274.246076z" fill="#272636"></path></g></g></svg>